PathFileType	4	(X/Y/Z)	OpenSim_Sub03_CSBaseline_Gyro.trc
DataRate	CameraRate	NumFrames	NumMarkers	Units	OrigDataRate	OrigDataStartFrame	OrigNumFrames
100	100	13	8	m	100	1162	9288
Frame#	Time	torso_imu_offset_imu	pelvis_imu_offset_imu	tibia_r_imu_offset_imu	femur_r_imu_offset_imu	tibia_l_imu_offset_imu	femur_l_imu_offset_imu	toes_r_imu_offset_imu	toes_l_imu_offset_imu
				X1	Y1	Z1	X2	Y2	Z2	X3	Y3	Z3	X4	Y4	Z4	X5	Y5	Z5	X6	Y6	Z6	X7	Y7	Z7	X8		Y8	Z8	

1162	11.61000000	-0.10823598	-0.19408039	0.11560228	-0.08058208	0.05970554	0.03818096	0.01179917	0.65372399	3.09142622	0.78173624	-0.13990128	0.71259522	0.09384903	0.05490357	0.74095495	-0.19437976	-0.08951891	0.61505307	-1.21399029	3.25452036	1.53105729	-0.05578835	-0.11607461	0.10648555
1163	11.62000000	-0.11138641	-0.18935503	0.10680946	-0.06896212	0.06338218	0.00804408	0.20423416	0.65121114	3.21613453	0.66308518	-0.11424893	0.61144760	0.11393530	0.06142013	0.71868385	-0.17657093	-0.07846818	0.64736351	-1.11908184	3.24621810	1.70966493	-0.03490939	-0.11206670	0.09472090
1164	11.63000000	-0.11646295	-0.18009591	0.10228382	-0.05580103	0.07613722	-0.01494072	0.45536549	0.66411945	3.31214771	0.51120828	-0.11790803	0.55090228	0.13144642	0.08164418	0.70499384	-0.14321102	-0.06809221	0.67349166	-0.97424327	3.21071674	1.90101020	-0.02042427	-0.10275979	0.08307296
1165	11.64000000	-0.11546570	-0.16539888	0.09932409	-0.03660869	0.09080839	-0.02505155	0.71511918	0.67743676	3.39370670	0.34003039	-0.12753434	0.45202934	0.11540596	0.08563852	0.70833765	-0.09345545	-0.06710656	0.68671415	-0.83721820	3.13630599	2.12571410	-0.01501785	-0.09999069	0.07878106
1166	11.65000000	-0.10901814	-0.14699590	0.09333496	-0.00782373	0.10289378	-0.02603107	0.90446474	0.70768403	3.45668955	0.14972860	-0.11312736	0.34820296	0.10070597	0.08466593	0.69415561	-0.03655464	-0.07262285	0.68932921	-0.72421071	3.02932678	2.37242057	-0.02101331	-0.09183530	0.08548189
1167	11.66000000	-0.10560355	-0.12391969	0.08634693	0.03491588	0.11761094	-0.02558162	1.02437593	0.75675024	3.50895598	-0.03528180	-0.09821939	0.23020373	0.11592569	0.10678918	0.66724240	0.01304486	-0.08253806	0.69227057	-0.64753835	2.92454893	2.60923904	-0.03396379	-0.09788582	0.10131003
1168	11.67000000	-0.10246566	-0.10711061	0.08445449	0.07931210	0.13035912	-0.02744901	1.07812760	0.81272743	3.54152402	-0.19520598	-0.07594413	0.11188361	0.10157478	0.10519290	0.65861133	0.03361672	-0.08515164	0.68748439	-0.56465902	2.82888353	2.80216930	-0.07018293	-0.11013502	0.13842559
1169	11.68000000	-0.09189293	-0.08988207	0.08494188	0.11826946	0.14226289	-0.03309372	1.16896056	0.86050606	3.52629038	-0.31248480	-0.05774031	0.04033030	0.09677810	0.12303124	0.65501865	0.04980035	-0.07568266	0.67921051	-0.43641968	2.75378242	2.92337017	-0.10144294	-0.10857682	0.16040633
1170	11.69000000	-0.08182039	-0.07144914	0.08266813	0.15418109	0.14826183	-0.03968203	1.30531111	0.91798295	3.52919833	-0.39325194	-0.03036384	-0.04422604	0.06372304	0.14469684	0.67645605	0.07863677	-0.07558056	0.66943915	-0.26458788	2.69722464	2.94973675	-0.10857015	-0.12284054	0.17567731
1171	11.70000000	-0.06520578	-0.06610310	0.08930972	0.18301659	0.15378650	-0.04337762	1.46186521	0.99219852	3.56265589	-0.41617176	-0.01649715	-0.14677599	0.06628310	0.13421965	0.68460733	0.06949013	-0.06960247	0.66280080	-0.09901850	2.63256103	2.91997365	-0.11569933	-0.14072381	0.21497069
1172	11.71000000	-0.05364128	-0.05041431	0.09841651	0.20657488	0.16518593	-0.04215759	1.53873237	1.06048161	3.52772725	-0.36649399	-0.01777116	-0.23356400	0.07352722	0.13247283	0.68864301	0.05763040	-0.05642168	0.66708505	-0.00895888	2.55185362	2.87469949	-0.14398512	-0.17838541	0.25754623
1173	11.72000000	-0.04515729	-0.04172976	0.11012499	0.22165119	0.18146740	-0.03644497	1.47459081	1.13042516	3.50801334	-0.27688192	-0.03924912	-0.31499537	0.06001139	0.11343414	0.69801507	0.07984169	-0.03809143	0.65781789	-0.01528015	2.47585577	2.85398839	-0.16006768	-0.20634046	0.28577990
1174	11.73000000	-0.03571700	-0.03489850	0.12070957	0.23187574	0.19975239	-0.02653753	1.34011520	1.18723696	3.44374197	-0.10388744	-0.06519765	-0.39465624	0.03175656	0.10192139	0.72165927	0.12996437	-0.01838410	0.63538522	-0.05079572	2.40628205	2.84272406	-0.16346414	-0.22362066	0.31738565
